HIERARCHY
ROOT Hips
{
	OFFSET 0.000000 0.000000 0.000000
	CHANNELS 6 Xposition Yposition Zposition Xrotation Yrotation Zrotation
	JOINT LeftUpLeg_virtual
	{
		OFFSET 0.000000 0.000000 0.000000
		CHANNELS 3 Xrotation Yrotation Zrotation
		JOINT LeftUpLeg
		{
			OFFSET 13.026900 -6.336304 -1.092800
			CHANNELS 3 Xrotation Yrotation Zrotation
			JOINT LeftLeg
			{
				OFFSET 0.524474 -46.096886 9.782700
				CHANNELS 3 Xrotation Yrotation Zrotation
				JOINT LeftFoot
				{
					OFFSET -0.524474 -53.427422 -12.948200
					CHANNELS 3 Xrotation Yrotation Zrotation
					JOINT LeftToeBase
					{
						OFFSET 0.192200 -14.009700 16.364100
						CHANNELS 3 Xrotation Yrotation Zrotation
						JOINT LeftToe_End
						{
							OFFSET -1.784700 -0.561700 9.474800
							CHANNELS 3 Xrotation Yrotation Zrotation
							End Site
							{
								OFFSET 0 0 0
							}
						}
					}
				}
			}
		}
	}
	JOINT RightUpLeg_virtual
	{
		OFFSET 0.000000 0.000000 0.000000
		CHANNELS 3 Xrotation Yrotation Zrotation
		JOINT RightUpLeg
		{
			OFFSET -12.883000 -6.336304 -1.092800
			CHANNELS 3 Xrotation Yrotation Zrotation
			JOINT RightLeg
			{
				OFFSET -0.524587 -46.096825 9.782800
				CHANNELS 3 Xrotation Yrotation Zrotation
				JOINT RightFoot
				{
					OFFSET 0.524587 -53.427383 -12.948300
					CHANNELS 3 Xrotation Yrotation Zrotation
					JOINT RightToeBase
					{
						OFFSET -0.192200 -14.009700 16.364100
						CHANNELS 3 Xrotation Yrotation Zrotation
						JOINT RightToe_End
						{
							OFFSET 1.784700 -0.561700 9.474800
							CHANNELS 3 Xrotation Yrotation Zrotation
							End Site
							{
								OFFSET 0 0 0
							}
						}
					}
				}
			}
		}
	}
	JOINT Spine_virtual
	{
		OFFSET 0.000000 0.000000 0.000000
		CHANNELS 3 Xrotation Yrotation Zrotation
		JOINT Spine
		{
			OFFSET 0.072000 7.257294 -0.789700
			CHANNELS 3 Xrotation Yrotation Zrotation
			JOINT Spine1
			{
				OFFSET 0.000000 12.508769 -0.658067
				CHANNELS 3 Xrotation Yrotation Zrotation
				JOINT Spine1_split
				{
					OFFSET 0.000000 12.508769 -0.658067
					CHANNELS 3 Xrotation Yrotation Zrotation
					JOINT Spine2
					{
						OFFSET 0.000000 12.508769 -0.658067
						CHANNELS 3 Xrotation Yrotation Zrotation
						JOINT Neck_virtual
						{
							OFFSET 0.000000 0.000000 0.000000
							CHANNELS 3 Xrotation Yrotation Zrotation
							JOINT Neck
							{
								OFFSET 0.000000 14.033295 7.520400
								CHANNELS 3 Xrotation Yrotation Zrotation
								JOINT Head
								{
									OFFSET 0.000000 8.198502 5.703100
									CHANNELS 3 Xrotation Yrotation Zrotation
									JOINT HeadTop_End
									{
										OFFSET 0.000000 17.760803 13.332701
										CHANNELS 3 Xrotation Yrotation Zrotation
										End Site
										{
											OFFSET 0 0 0
										}
									}
								}
							}
						}
						JOINT LeftShoulder_virtual
						{
							OFFSET 0.000000 0.000000 0.000000
							CHANNELS 3 Xrotation Yrotation Zrotation
							JOINT LeftShoulder
							{
								OFFSET 6.292450 5.785301 -0.669000
								CHANNELS 3 Xrotation Yrotation Zrotation
								JOINT LeftShoulder_split
								{
									OFFSET 6.292450 5.785301 -0.669000
									CHANNELS 3 Xrotation Yrotation Zrotation
									JOINT LeftArm
									{
										OFFSET 13.907140 -6.093903 1.965100
										CHANNELS 3 Xrotation Yrotation Zrotation
										JOINT LeftForeArm
										{
											OFFSET 34.140198 0.000000 0.000000
											CHANNELS 3 Xrotation Yrotation Zrotation
											JOINT LeftHand
											{
												OFFSET 40.960209 0.000000 0.000000
												CHANNELS 3 Xrotation Yrotation Zrotation
												End Site
												{
													OFFSET 0 0 0
												}
											}
										}
									}
								}
							}
						}
						JOINT RightShoulder_virtual
						{
							OFFSET 0.000000 0.000000 0.000000
							CHANNELS 3 Xrotation Yrotation Zrotation
							JOINT RightShoulder
							{
								OFFSET -6.292450 5.785301 -0.669000
								CHANNELS 3 Xrotation Yrotation Zrotation
								JOINT RightShoulder_split
								{
									OFFSET -6.292450 5.785301 -0.669000
									CHANNELS 3 Xrotation Yrotation Zrotation
									JOINT RightArm
									{
										OFFSET -13.907140 -6.093903 1.965100
										CHANNELS 3 Xrotation Yrotation Zrotation
										JOINT RightForeArm
										{
											OFFSET -34.140198 0.000000 0.000000
											CHANNELS 3 Xrotation Yrotation Zrotation
											JOINT RightHand
											{
												OFFSET -40.960209 0.000000 0.000000
												CHANNELS 3 Xrotation Yrotation Zrotation
												End Site
												{
													OFFSET 0 0 0
												}
											}
										}
									}
								}
							}
						}
					}
				}
			}
		}
	}
}
MOTION
Frames: 7
Frame Time: 0.03333333
-0.689010 99.126358 1.078400 0.000000 0.000000 0.000000 15.001170 -57.691418 13.227850 -51.380709 9.181924 27.848443 45.550634 -8.598574 -4.632146 2.813808 -2.343652 -3.628532 0.618194 -0.163217 -0.546037 0.000000 0.000000 0.000000 15.895836 -58.434468 14.229478 -31.139119 -6.170198 -20.371212 50.944192 7.122879 -1.840729 -25.871676 -6.730021 11.608333 4.734907 0.378505 0.548395 0.000000 0.000000 0.000000 16.789870 -60.014092 14.007025 5.383455 1.205104 -2.785171 -4.550910 5.136963 -3.863663 0.836726 -2.355489 0.554619 0.000000 0.000000 0.000000 -2.638494 4.625536 -3.281414 -15.479741 7.539218 8.490148 3.328684 34.176101 2.396506 0.000000 0.000000 0.000000 -3.408862 5.067809 -3.777564 -29.508487 6.416892 6.234998 -7.693936 6.107752 -6.824949 33.271443 -10.334393 -42.082141 -29.074428 -86.549288 -29.386336 0.000000 0.000000 0.000000 -3.803886 4.303121 -3.720647 1.950993 15.967678 11.375899 -5.897057 0.815452 -1.191033 13.097668 17.235632 59.097481 5.867210 67.116581 -8.312370 0.000000 0.000000 0.000000 
-0.582294 99.231171 1.377613 0.000000 0.000000 0.000000 14.794210 -57.616191 13.027258 -51.350738 9.536458 28.028335 45.122719 -8.419608 -4.870023 2.641888 -2.348464 -3.429254 0.653306 -0.192197 -0.483515 0.000000 0.000000 0.000000 15.812055 -58.666175 14.106914 -30.788030 -6.260887 -20.281075 50.908306 7.119303 -1.848781 -26.088937 -6.790777 11.380772 4.786185 0.362631 0.607112 0.000000 0.000000 0.000000 16.985912 -60.106348 14.138449 5.431732 1.287258 -2.875794 -4.500883 5.169357 -3.919202 1.121389 -2.156156 0.485067 0.000000 0.000000 0.000000 -2.458920 4.701874 -3.383964 -14.953864 8.162342 8.256909 3.068164 34.066600 2.657239 0.000000 0.000000 0.000000 -3.096665 5.096098 -3.763349 -29.499020 5.904241 6.193392 -7.317484 5.199611 -6.472822 33.577053 -11.497952 -42.336641 -25.347691 -85.794853 -25.369220 0.000000 0.000000 0.000000 -3.641255 4.320150 -3.807153 2.001778 15.938731 11.708701 -6.564028 1.309373 -0.703707 13.928224 16.946522 58.960351 5.164867 66.988644 -7.610092 0.000000 0.000000 0.000000 
-0.445849 99.393387 1.519131 0.000000 0.000000 0.000000 14.466163 -57.753115 12.706051 -50.909423 10.007364 28.184654 44.224754 -8.232047 -5.117820 2.384284 -2.219623 -3.233727 0.796544 -0.241976 -0.473756 0.000000 0.000000 0.000000 15.455345 -58.806781 13.715893 -30.182852 -6.487612 -20.093418 50.712444 7.093855 -1.889169 -26.521343 -6.960406 11.077763 4.610224 0.328796 0.715977 0.000000 0.000000 0.000000 16.654185 -60.011244 13.928666 5.622119 1.401482 -2.996202 -4.444035 5.356686 -4.051371 1.198863 -2.050516 0.542604 0.000000 0.000000 0.000000 -2.357144 4.906868 -3.606787 -14.434683 8.920722 7.969284 2.655640 33.996905 3.035227 0.000000 0.000000 0.000000 -2.855709 5.315786 -3.842074 -29.468469 4.885334 5.826740 -6.649025 4.207266 -6.151077 33.987424 -12.985934 -42.334168 -17.075661 -83.648371 -16.789092 0.000000 0.000000 0.000000 -3.335988 4.476272 -4.011184 2.002707 15.652874 12.029896 -6.644291 1.486560 -0.638499 15.062498 17.719114 58.101639 4.054040 67.142112 -6.741375 0.000000 0.000000 0.000000 
-0.315806 99.546806 1.455784 0.000000 0.000000 0.000000 14.019109 -57.893346 12.265830 -50.257078 10.506100 28.318647 43.295633 -8.082527 -5.354217 2.065088 -2.019523 -3.050272 1.039100 -0.306687 -0.524662 0.000000 0.000000 0.000000 14.906195 -58.820619 13.177613 -29.546446 -6.775602 -19.909593 50.271087 7.080116 -1.953165 -27.047901 -7.188357 10.813481 4.252399 0.280202 0.838976 0.000000 0.000000 0.000000 15.939116 -59.657242 13.461102 5.928693 1.456230 -3.069569 -4.373521 5.641001 -4.198521 0.950869 -1.970377 0.633029 0.000000 0.000000 0.000000 -2.346149 5.162599 -3.834907 -14.077075 9.840146 7.657020 2.294028 34.090967 3.247538 0.000000 0.000000 0.000000 -2.661516 5.620988 -3.967850 -29.413738 3.595902 5.225503 -6.173262 3.415055 -6.145140 34.249731 -14.449596 -42.332816 -11.355330 -80.353474 -10.718741 0.000000 0.000000 0.000000 -2.925132 4.721142 -4.257064 1.970173 15.209959 12.286250 -6.447571 1.359303 -0.773570 16.498704 19.259873 56.401195 2.668881 67.487706 -5.842242 0.000000 0.000000 0.000000 
-0.256248 99.728973 1.281372 0.000000 0.000000 0.000000 13.441542 -57.946615 11.699487 -49.651323 10.930542 28.469569 42.671296 -7.975837 -5.595033 1.785803 -1.852439 -2.912413 1.298018 -0.376333 -0.615685 0.000000 0.000000 0.000000 14.184054 -58.617715 12.554991 -28.975049 -7.054766 -19.785130 49.668033 7.150829 -2.042996 -27.441965 -7.371338 10.785889 3.783744 0.227157 0.933022 0.000000 0.000000 0.000000 15.000257 -59.004870 12.779739 6.294526 1.366017 -3.025597 -4.289473 5.941648 -4.304468 0.706021 -1.999776 0.437965 0.000000 0.000000 0.000000 -2.399828 5.379576 -3.949262 -13.721673 10.967417 7.336366 2.118563 34.435485 3.063605 0.000000 0.000000 0.000000 -2.541062 5.899076 -4.083438 -29.350764 2.226460 4.419746 -6.233665 3.100022 -6.561371 34.317401 -15.651368 -42.538459 -8.566002 -76.692561 -7.508277 0.000000 0.000000 0.000000 -2.499109 4.958644 -4.440175 1.965064 14.771841 12.432770 -6.100585 1.170120 -0.921350 18.204513 21.322099 53.871314 1.111185 67.883228 -4.917192 0.000000 0.000000 0.000000 
-0.307533 99.876869 1.036724 0.000000 0.000000 0.000000 12.718605 -57.805510 10.992241 -49.352157 11.153186 28.726693 42.550463 -7.911679 -5.865385 1.704744 -1.812610 -2.808543 1.413670 -0.450814 -0.703309 0.000000 0.000000 0.000000 13.386711 -58.286840 11.885147 -28.467998 -7.293303 -19.702290 49.079485 7.288516 -2.121154 -27.623529 -7.480462 11.007302 3.347420 0.178532 0.979810 0.000000 0.000000 0.000000 14.041187 -58.156547 12.008725 6.635000 1.064420 -2.817846 -4.238362 6.184852 -4.340027 0.685323 -1.831040 0.160616 0.000000 0.000000 0.000000 -2.517990 5.508028 -3.883370 -13.248311 12.276303 7.070552 2.313033 35.010529 2.362477 0.000000 0.000000 0.000000 -2.454413 6.089747 -4.144331 -29.291314 0.914882 3.551428 -6.601468 3.221713 -7.304984 34.320376 -16.386906 -43.012239 -7.277009 -73.503620 -5.795781 0.000000 0.000000 0.000000 -2.096941 5.147656 -4.497993 2.036744 14.502503 12.376065 -5.734816 1.137451 -0.955164 20.132913 23.679060 50.668635 -0.484827 68.190409 -3.979106 0.000000 0.000000 0.000000 
-0.516163 99.946510 0.798416 0.000000 0.000000 0.000000 11.928836 -57.418648 10.173306 -49.492876 11.137031 29.129684 42.926564 -7.768363 -6.175361 1.878781 -1.878534 -2.681780 1.448825 -0.529882 -0.788344 0.000000 0.000000 0.000000 12.533515 -57.881325 11.156758 -27.944787 -7.483936 -19.626702 48.625131 7.421905 -2.159398 -27.763165 -7.569759 11.301590 3.090108 0.150426 0.987241 0.000000 0.000000 0.000000 13.232420 -57.284250 11.205389 6.896115 0.640161 -2.467238 -4.166572 6.390333 -4.283007 0.871769 -1.526687 0.048843 0.000000 0.000000 0.000000 -2.678482 5.591548 -3.598796 -12.642065 13.707712 6.953956 2.721197 35.731817 1.318575 0.000000 0.000000 0.000000 -2.370149 6.220407 -4.085045 -29.263686 -0.301162 2.890183 -7.322635 3.473152 -8.423106 34.531336 -16.461311 -43.653996 -7.078159 -71.299033 -5.172480 0.000000 0.000000 0.000000 -1.826644 5.275508 -4.406223 2.139918 14.465446 12.258940 -5.509769 1.168200 -0.797109 22.130523 26.217555 47.031108 -2.093530 68.060479 -2.916948 0.000000 0.000000 0.000000 
